<svg  xmlns="http://www.w3.org/2000/svg" 
   viewBox="0 0 484.8 531.5">
      <path d="M190.5,82.1c-8.2-7.4-21.3-10.2-32-9.4c-12.1,0.9-24.9,7.4-32.8,16.7c-5.2,6.1-7.8,17.8-3.2,25c4.2,11,15.2,18.6,27.4,21
        c19.2,3.8,38.3-5,46.7-23C201.4,102,199.1,89.7,190.5,82.1z M181.2,115.7c-8.1,9-19.9,11.3-31.5,8.5c-2.2-0.5-4.3-1.3-6.2-2.3
        c1.1,0.1,2.3,0.1,3.4,0.1c10.2-0.4,20.2-6.1,26-14.4c3.6-5.1,6.2-14.8,3.4-21.3c3.6,1.5,6.9,3.6,9,6.4
        C191.2,100.4,186.9,109.4,181.2,115.7z M479.5,284.5h-16.8c-0.1-1.5-0.3-2.8-0.6-3.9c-2.5-9.4-11.7-14.5-20.8-15.5
        c-8.2-0.9-16.2,0.7-24.2,1.7c8.4-9.6,15.5-20.9,18-33.5c2.5-12.8,1.4-26.1-0.4-39c-1.8-13-6.7-26.1-17.7-33.9
        c-8.7-6.1-23.5-6.9-31.3,1.1c-6.9,7.1-7.6,18.2-11.8,26.8c-6.7,13.6-13.6,27.1-20.3,40.6c-3.2,6.4-6.2,12.8-9.8,18.9
        c-0.1,0.2-0.2,0.3-0.3,0.5c-4.8-5.4-12.5-7.9-19.4-9.6c-12-3-23.5-0.9-35.5,1.1c-11.7,2-22.4,6.4-32.7,12.2c-4.5,2.5-10,5.4-14.5,9
        c-0.2-2-0.4-4-0.5-5.9c-0.4-7.2-0.6-14.1-2-21.3c-1.4-7-1.9-13.8-1.7-21c0.5-14.9-1-29.6-1-44.5c0-15.7,0.5-31.3-1.4-46.9
        c-1.8-15.2-2.4-31-7.3-45.6c-4.4-13.1-8.3-26.7-14.9-38.9C207,26.5,199,17.5,189.3,10.7c-10.5-7.4-23-10-35.6-10.6
        c-13.4-0.6-26.8,2-39.5,6.3c-13.1,4.4-26.8,10.3-37.8,18.6c-6.3,4.7-11.7,10.3-17,15.9c-1.6-0.4-3.2-0.8-4.8-1.2
        c-8.7-1.9-17.8-1.8-26.7-1.3c-5,0.3-7,5.7-3.9,9.4c0.5,0.6,1,1,1.6,1.4c-1.7,3.3-0.2,8.3,4.6,8.2c3.8-0.1,7.5,0.8,11.1,2
        c-2,2.4-3.9,4.9-5.2,7.7C24.3,68.8,13,74.6,7.9,85.3c-4.5,9.3-2.1,19.7,3.5,28c-1.4,3.3-2.1,6.8-2.8,10.4
        c-1.4,7.1-3.2,14.1-4.3,21.2c-2.4,15.2-3.5,30.7-3.8,46.1c0,0.2-0.1,0.4-0.1,0.6c-1,12-0.2,23.7,1.3,35.6c1.7,13.5,1.4,27,4.1,40.4
        c2.7,13.4,7.6,26.3,11.9,39.3c2,6,3.3,12.5,5.2,18.7c1.3,7.1,2.6,14.2,6.8,20.7c3.5,5.5,5.6,11.8,8.4,17.7c2.8,5.8,5.9,10.9,9.9,16
        c16,20.5,37.6,34.3,60.6,45.7c5,2.5,10.2,4.8,15.4,6.9c-4.4,5.8-6.6,13.7-8.8,20.2c-3.1,9.1-6.5,18-9.6,27
        c-6.8-5.7-14.1-10.4-22.6-13.5c-9.3-3.4-20.5-1.4-23.8,9.2c-3.6,11.5,3.5,19,10.6,27c4,4.6,7.2,9.1,12,13c4.7,3.8,9.6,7.7,14.5,11.3
        c7.8,5.8,16.3,6.7,23.8,0.3c6.6-5.6,10.1-15.1,12.9-22.9c3.6-9.8,6.9-19.7,11-29.3c4.6-11,7.9-23.7,15.2-33.3c0.3-0.3,0.5-0.7,0.6-1
        c8.5,0.8,17.1,1.3,25.6,2.3c13.2,1.6,25.9,2.5,39.2,2.2c9-0.2,18-0.4,26.7-2.6c0.1,0.3,0.2,0.6,0.3,0.9c1,3.3,1.2,6.6,1.4,10.1
        c0.2,5.2,0.7,10.5,0.9,15.8c-8.2-4-16.8-7.5-25.9-8.8c-8.2-1.1-17.9-0.4-19.2,9.5c-0.9,6.6,5.4,13.8,9.2,18.4
        c5.4,6.4,12.2,11.3,18.3,16.9c8.8,8,17.3,14.9,28.6,19c11.8,4.2,20.1-2.3,23.9-13.1c4.2-11.7,4.4-24.7,4.5-37
        c0.2-12.7,0.3-25.4,0.3-38.2c25.4,0.4,51.2-4.2,73.7-16.2c22.6-12,41.2-32.4,44.5-58.4c0.6-4.6,0.7-9.3,0.4-14.1
        c6.4,2.9,14.4,3.7,20.9,3.9c-0.1,6.1,1.2,12.6,5,17.4c1.9,2.3,5.8,1.9,7.8,0c2.3-2.3,1.9-5.4,0-7.8c-1.7-2.1-1.9-7-1.8-10.3
        c4.4-0.9,8.7-2.5,12.3-4.9c3.9,1.8,8.1,2.7,12.1,4c6.8,2.1,9.7-8.6,2.9-10.6c-2.2-0.7-4.7-1.2-7-2c1.3-2.4,2.1-5.1,2.5-8.1
        c0.9-9-2.8-16.2-9-21.4c2.2-3.2,3.5-7.6,4.2-11.9h17.3C486.5,295.5,486.5,284.5,479.5,284.5z M30.5,115.5
        c13.9-0.1,27.7-8.2,29.4-22.8c0.5-4.1-0.3-8.5-2.2-12.3c8.6,4.9,12.5,15.7,14.6,25.2c-2.7,2.2-5.3,4.6-7.6,7.2
        c-0.3,0.4-0.7,0.7-1,1.1c-2.2-0.7-4.8-0.2-6.4,2.2c-4.1,6.3-18.1,3.3-23.9,1.5c-1.5-0.5-3-1.2-4.5-2.1
        C29.4,115.5,30,115.5,30.5,115.5z M138.5,459.1c-3.8,10-8.4,19.8-12,29.9c-2.1,5.8-3.7,11.7-6.2,17.4c-2,4.7-5.1,12.5-10.4,14.3
        c-2.8,1-6.2-1.7-8.2-3.4c-3.5-2.8-7-5.6-10.6-8.3c-7.6-5.6-13.3-13.4-19.3-20.6c-2.7-3.2-3.6-7.2-1.5-11c1.9-3.5,7-1.4,9.7-0.5
        c9.4,3,17.3,9.8,24.2,16.5c3,2.9,8,1.5,9.2-2.4c3.3-10.8,7.3-21.2,11.1-31.9c2.6-7.4,4.5-17.5,10.9-22.6c0,0,0,0,0,0
        c3.2,0.9,6.4,1.7,9.6,2.2c0.8,0.1,1.6,0.3,2.4,0.4C143.5,445.3,141,452.3,138.5,459.1z M395,379c-5.9,11.3-16.4,20.5-27,27.3
        c-22.6,14.6-50.6,19.2-77.1,18.5c-3.2-2.6-9.3-1.3-9,4c0,0.5,0,0.9,0.1,1.4c0,0.7,0.2,1.3,0.4,1.9c0,10.3,0.4,20.6,0,31
        c-0.5,11.1,0.2,22.4-1.6,33.4c-0.7,4.7-2.1,17.5-8.4,18c-4.4,0.4-9.8-2.8-13.4-4.9c-4.2-2.4-7.9-5.7-11.5-8.9
        c-9.3-8.3-20.5-15.9-26.7-27.1c-0.5-0.8-0.8-1.6-1-2.5c0-0.1,0-0.2-0.1-0.2c1.9-0.6,7,0.4,8.5,0.7c10.1,1.8,19.4,6.7,28.4,11.4
        c3.7,2,8.1-0.5,8.3-4.7c0.2-7.1-0.5-14.2-0.9-21.2c-0.2-3.6-0.3-7.1-0.7-10.7c-0.2-1.5-0.4-3-0.8-4.5c-0.2-0.8-1.3-2.6-1.1-3.4
        c0-0.1,0-0.1,0-0.2c2.8-3.7-2.1-10.3-7.6-7.9c-9.5,4.1-20.7,3.6-30.8,3.9c-12.7,0.3-25-0.6-37.7-2.2c-12.4-1.6-25-1.9-37.3-3.8
        c-12.4-2-24.3-7.2-35.5-12.7c-10.3-5.1-20.5-10.6-29.9-17.3c-9.6-6.8-18.3-15.6-25.9-24.6c-7.9-9.3-10.7-21.1-16.8-31.5
        c-0.1-0.2-0.3-0.5-0.4-0.7c0.8-1.4,1-3.3-0.3-5.2c-3-4.6-4.3-9.4-5.7-14.6c-0.4-1.8-0.9-3.5-1.4-5.3c-0.5-2.5-1-4.9-1.9-7.3
        c-0.2-0.6-0.5-1.2-0.9-1.6c-0.4-1.1-0.7-2.2-1.1-3.4c-4.1-12.4-8.6-24.7-11.5-37.5c-2.9-12.9-2.6-26.2-4.1-39.3
        c-1-9-1.8-17.9-1.7-26.8c0.3-0.6,0.4-1.3,0.4-2.2c0-8.4,0.3-16.9,0.8-25.3c4.2,0.7,8.6,0.5,12.8,0.3c8-0.4,16.1-0.8,24.1-1.2
        c8.4-0.4,16.8-0.7,25.2-1.4c8.7-0.7,17.3-2.4,25.9-3.7c16.5-2.5,33.3-1.8,49.9-4c7.8-1.1,15.5-3,23.3-3.9c5.7-0.7,11.6-0.6,16-4.8
        c5.2-4.9-2.6-12.6-7.8-7.8c-2.6,2.4-10.2,1.8-13.6,2.4c-8.2,1.5-16.5,3-24.8,3.9c-15.3,1.6-30.7,1.4-45.9,3.6
        c-7.7,1.1-15.2,2.6-23,3.3c-8.4,0.8-16.8,1-25.2,1.4c-7.1,0.4-14.2,0.6-21.3,1.1c-4.8,0.3-9.9,0.9-14.7-0.1
        c0.4-4.1,0.9-8.3,1.5-12.4c0.9-6.5,2.5-12.9,3.9-19.3c0.5-2.3,0.8-5.2,1.3-8c2.7,2.1,5.6,3.8,8.6,5.1c7.4,3,18.1,4.7,26.8,2.2
        c-1.6,7,0,14,7.4,19.2c10.7,7.6,29.4,5,39-3.4c4.8-4.1,7.8-12.4,2.3-17.5c-5.1-4.6-12.2-4.6-18.5-3c-6.9,1.8-4,12.4,2.9,10.6
        c1.4-0.4,6.5-1.6,7.6-0.1c0.9,1.3-6.9,4.8-7.7,5.1c-6,2.1-20,3.3-22.6-4.6c-2.2-6.7,6.7-15.4,11-19.4c2.9-2.7,6-5.2,9.2-7.5
        c2-1.4,5.7-4.2,7.7-4.2c7.1-0.1,7.1-11.1,0-11c-4.2,0.1-8,2.1-11.5,4.5C77.7,83.2,68.7,69.9,52,67c-0.8-0.1-1.6-0.2-2.5-0.3
        c0.4-0.5,0.9-1,1.3-1.5c0.7-0.7,1.4-1.5,2-2.2c7.8,1.9,15.1,5.3,23.3,5.2c3.9-0.1,6-4.2,5.3-7.3c1.9-2,2.2-5.4,0.3-7.6
        c1.7-3,1.1-7.1-3.1-7.8c-2.3-0.4-4.6-0.9-6.9-1.4c6.4-6.5,13.1-12.5,21.6-16.9c24-12.3,53.9-22.4,80.6-12.4
        c25.4,9.5,33.8,37.4,41.7,60.4c2.5,7.3,4.5,14.4,5.3,22.2c0.8,8.1,1.7,16,2.8,24.1c2.1,15.5,1.4,31.3,1.4,46.9
        c-0.1,11.6,1,23,1.3,34.6c0.3,10.9-0.7,21.2,1.4,32.1c2.2,11.6,1.6,23.5,3.7,35.1c1.7,9.7,4.3,19.6,9.2,28.2c3.5,6.2,13,0.6,9.5-5.6
        c-3.1-5.3-5.2-11.4-6.7-17.7c0,0,0-0.1,0-0.1c2.8-6.1,11-9.8,16.6-12.9c8.8-5,17.7-8.8,27.6-11c9.4-2.1,20.3-4.4,29.9-2.5
        c6.1,1.2,15.4,2.8,18.6,8.9c0.2,0.4,0.5,0.8,0.7,1.1c-1.8,3-3.5,6.1-4.9,9.4c-1.6,3.7-2.6,7.6-4.7,11.1c-5.9,0.2-11.8,0.7-17.4,1.5
        c-4.1,0.6-8.3,1.6-12.3,2.9c-1.5-1.6-3.5-5.3-5.1-7c-2.8-2.9-6.7-5.7-10.5-7.1c-2.8-1.1-6,1.1-6.8,3.8c-0.8,3.1,1,5.7,3.8,6.8
        c-1.3-0.5,0.5,0.4,0.6,0.4c0.9,0.5,1.8,1.2,2.6,1.8c1,0.7,2.2,1.6,2.9,2.5c0.7,0.9,1.3,1.9,2,2.9c-1.4,0.7-2.8,1.4-4.1,2.1
        c-6.5,3.6-13.4,7.1-16.4,14.3c-2.7,6.6,7.9,9.4,10.6,2.9c1.5-3.6,8.2-6,11.3-7.7c6.4-3.6,13.3-5.9,20.4-7.5
        c14.2-3.1,30.5-2.3,44.7,0.6c11.4,2.3,22.2,7.5,30.6,15.7c9,8.8,13.1,20.9,15.4,33C402.4,354,401.1,367.5,395,379z M454.8,331.1
        c-2.1-1.9-4.3-3.6-7.1-4.6c-6.7-2.4-9.5,8.2-2.9,10.6c0.7,0.3,1.4,0.6,2,1c-3,1.3-6.3,2-9.6,2c-7,0.1-21.6,0.2-25.2-7.3
        c-0.7-1.5-1.7-2.3-2.9-2.6c-4-13.9-11.9-26.7-23.1-35.2c-13.2-10-29.7-14.5-46.5-15.6c1.1-2.8,2-5.7,3.3-8.4
        c3-6.1,6.7-11.7,10.2-17.5c6.7-11.2,12.1-23.3,18.2-34.9c5.4-10.3,11.3-21.3,15.1-32.3c1.4-4.1,2.5-8.4,4.2-12.4
        c2.1-4.9,4.6-6.8,10-7.1c12.6-0.7,18.8,11.9,21.6,22.2c3.1,11.6,3.7,24.7,2.7,36.7c-1.1,12.2-7,22.6-14.7,32
        c-4,4.9-8.6,9.3-13.3,13.5c-2.1,1.8-4.3,3.5-6.7,4.9c-0.9,0.5-1.9,1.1-2.8,1.6c-0.7,0.4-2.4,0.6-0.6,0.4c-7,1-4,11.6,2.9,10.6
        c3.3-0.5,7.2-3.6,9.8-5.5c2.3-1.7,4.6-3.6,6.7-5.5c0.8,0.5,1.7,0.8,2.9,0.7c7-0.1,13.9-1.5,20.9-2.2c6.8-0.7,15-0.9,20,4.5
        c2.7,3,2.4,8.2,1.7,11.8c-0.4,2.2-1,4.5-1.9,6.6c-0.4,0.9-0.9,1.7-1.4,2.5c0,0.1-0.1,0.1-0.1,0.1c0,0,0,0-0.1,0
        c-9.8-4-22.5-4.2-29.9-12.7c-4.7-5.3-12.4,2.5-7.8,7.8c6.2,7,15.5,9.7,24.2,12.1c7.2,2,17.2,4,20.3,11.9
        C456.5,324.8,456.2,328.3,454.8,331.1z M263.1,280.7c-7.1,0-7.1,11,0,11S270.2,280.7,263.1,280.7z M315,335.4c3,0,5.5-2.5,5.5-5.5
        v-0.5c0-3-2.5-5.5-5.5-5.5c-3,0-5.5,2.5-5.5,5.5v0.5C309.5,332.9,312,335.4,315,335.4z M314.3,361c0-0.1,0.1-0.1,0.1-0.2
        c0.7-1.3,0.9-2.8,0.6-4.2c-0.4-1.4-1.3-2.6-2.5-3.3c-1.4-0.8-2.7-0.8-4.2-0.6c-1.6,0.3-3,1.5-3.8,2.8c-0.9,1.5-1,3.3-0.5,4.9
        c0.8,2.9,3.9,4.6,6.8,3.8C312.4,363.8,313.7,362.5,314.3,361z M295.4,373.1c-0.2,0.2-0.3,0.3-0.5,0.5c-2.1,2.1-2.1,5.7,0,7.8
        c2.1,2.1,5.7,2.1,7.8,0c0.2-0.2,0.3-0.3,0.5-0.5c2.1-2.1,2.1-5.7,0-7.8S297.5,371,295.4,373.1z M319.2,402.9c-0.2,0-0.4,0-0.6,0
        c-0.6,0-1.2,0-1.8,0.2c-3,0.8-4.5,3.9-3.8,6.8c0.5,2,2.1,3.9,4.2,4.3c1.5,0.3,3,0.2,4.4-0.6c0.6-0.3,1.1-0.8,1.6-1.3
        c1-1.1,1.6-2.3,1.6-3.9c0-1.5-0.6-2.9-1.6-3.9S320.7,402.9,319.2,402.9z M402.4,249.4c3,0,5.5-2.5,5.5-5.5v-0.5c0-3-2.5-5.5-5.5-5.5
        c-3,0-5.5,2.5-5.5,5.5v0.5C396.9,246.9,399.4,249.4,402.4,249.4z M411.5,230.9c7.1,0,7.1-11,0-11S404.4,230.9,411.5,230.9z
         M205.8,322.3c-5.6-3-9.2-5.4-10.5-12.1c-0.7-3.8-0.5-7.9-0.6-11.8c-0.1-5-0.7-9.9-1-14.9c-0.6-11.3-0.7-22.8-0.1-34.1
        c0.3-5.3,0.4-10.4-0.6-15.6c-0.9-5,1.1-9.7-0.3-14.6c-1.9-6.8-12.5-3.9-10.6,2.9c1,3.5-1.1,7.8-0.3,11.6c0.9,4.7,1.1,9.1,0.9,13.9
        c-0.5,9.4-0.4,18.8-0.3,28.3c0.1,8.4,1.1,16.8,1.3,25.3c0.1,7,0.5,13.9,3.8,20.2c4.6,8.9,17.3,12.4,25,18c1.5,1.1,3.2,2.6,4.3,4.1
        c0.2,0.2,0.4,0.7,0.5,1c-0.1,0.1-0.4,0.3-0.8,0.4c-5.6,2.3-13.7,3.2-18.6-0.8c-0.2-0.1-0.3-0.2-0.5-0.4c-1.8-3.5-4.7-6.3-8.6-7.7
        c-6.7-2.3-9.6,8.3-2.9,10.6c1.2,0.4,2,1.4,2.5,2.7c0,0.1,0.1,0.2,0.1,0.4c1.1,3.9-0.6,10-2.4,12.1c-3.8,4.3-10.5-8.4-9.6-11.8
        c1.8-6.9-8.8-9.8-10.6-2.9c-0.8,3.1-0.5,6.6,0.6,10.1c-2.8,1.4-5.7,2.6-8.6,2.1c-3.4-0.6-2.7-4.8-2.4-7.5c0.4-4.2,3.1-15.4,8.6-15.9
        c3.1-0.3,5.4-2.3,5.5-5.5c1.5-34.9-1.5-69.7-1.8-104.5c-0.1-7.1-11.1-7.1-11,0c0.4,33.5,3.1,66.9,2,100.4
        c-9.4,4.2-13.4,16.7-14.3,26.4c-0.6,6.3,1.4,12.5,7,15.8c7,4.1,13.7,0.9,20.2-2c5.1,6.2,12.7,9.6,19.9,5.1c4.8-3.1,7.6-8.7,8.2-14.7
        c3.6,1,7.4,1.2,11.3,0.7c6.9-0.9,14.4-2.8,17.1-9.8C232.8,336.1,213.5,326.3,205.8,322.3z M124.8,70c9.2-2.4,18.6-2.3,28-3.7
        c5-0.8,10-1.8,15.1-1.8c4.8-0.1,9.6,0.7,14.4,0.4c2.7-0.2,4.5-2,5.1-4.2c2.6-1,4.6-3.7,3.5-6.6c-1.8-5-1.7-9.8-7.2-12
        c-2-0.8-4.8-0.3-6.9-0.1c-3.7,0.3-7.5,0.3-11.2,0.7c-8.3,0.8-16.3,1.6-24.7,1.6c-5.9,0-11.6,0.9-17.2,2.3c-2.3,0.5-4.7,1.1-6.9,1.9
        c-3,1.1-4.1,3.8-3.7,6.3c-0.9,2.9,0.3,6.6,3.7,7.3c0.2,0,0.3,0,0.5,0.1c0.2,0.6,0.5,1.1,0.8,1.7C117.7,67.2,120.4,71.1,124.8,70z"/>
    <circle cx="420.9" cy="296.5" r="45.7"/>
  </svg>