<?xml version="1.0"?>
<svg xmlns="http://www.w3.org/2000/svg" viewBox="0 0 24 24" enable-background="new 0 0 24 24">
    <path d="M 10.5 0 C 8.567 0 7 1.567 7 3.5 C 7 4.039 7.12575 4.544 7.34375 5 L 13.65625 5 C 13.87425 4.544 14 4.039 14 3.5 C 14 1.567 12.433 0 10.5 0 z M 18.90625 3 C 17.54625 3.345 15.5805 4.639 14.9375 6.375 C 14.6035 6.177 13.6095 6 13.3125 6 L 9.8125 6 C 6.4052779 6 2.9076261 8.4334528 2.15625 12.40625 C 1.6385902 12.556994 1 12.251202 1 11.5 C 1 10.484 2.2505 10.50575 2.3125 10.96875 C 2.3125 9.48275 0 9.73325 0 11.65625 C 0 13.632812 1.2236621 13.9512 2 13.96875 C 1.9999633 13.979302 2 13.989431 2 14 C 2 16.094 3.00925 17.98225 4.65625 19.40625 C 4.89125 19.61025 5.37975 20.1185 5.21875 20.9375 C 5.05775 21.7565 4.78125 23.125 4.78125 23.125 L 9.125 24 C 9.125 24 9.29825 23.35425 9.40625 22.65625 C 9.51425 21.95825 10.05875 21.8755 10.71875 21.9375 C 11.13675 21.9755 11.567 22 12 22 C 12.528 22 13.0575 21.97225 13.5625 21.90625 C 13.8575 21.86725 14.4275 21.84975 14.5625 22.46875 C 14.6965 23.08675 14.875 24 14.875 24 L 19.21875 23.125 C 19.21875 23.125 18.848 21.402 18.75 20.875 C 18.652 20.348 19.02975 19.94725 19.21875 19.78125 C 19.86175 19.21725 20.4035 18.5705 20.6875 17.9375 C 20.8575 17.5565 21.46025 17 22.28125 17 L 24 17 L 24 12 L 22.6875 12 C 21.7435 12 21.419 11.29975 21.25 10.96875 C 20.813 10.11375 20.11325 8.821 18.90625 8.125 C 18.44225 8.867 18.2475 9.215 18.0625 10.375 C 17.3205 6.616 18.70625 4.111 18.90625 3 z M 18.5 12 C 19.328 12 20 12.672 20 13.5 C 20 14.328 19.328 15 18.5 15 C 17.672 15 17 14.328 17 13.5 C 17 12.672 17.672 12 18.5 12 z"/>
</svg>
